<?xml version="1.0" encoding="utf-8"?>
<!-- Generator: Adobe Illustrator 16.0.0, SVG Export Plug-In . SVG Version: 6.00 Build 0)  -->
<!DOCTYPE svg PUBLIC "-//W3C//DTD SVG 1.1//EN" "http://www.w3.org/Graphics/SVG/1.1/DTD/svg11.dtd">
<svg version="1.1" id="Layer_1" xmlns="http://www.w3.org/2000/svg" xmlns:xlink="http://www.w3.org/1999/xlink" x="0px" y="0px"
	 width="483.221px" height="254.619px" viewBox="0 0 483.221 254.619" enable-background="new 0 0 483.221 254.619"
	 xml:space="preserve">
<g>
	<path fill-rule="evenodd" clip-rule="evenodd" fill="#7C4DFF" d="M387.717,252.605l-21.9,0.005c-4.692,0-9.385-0.002-14.077-0.009
		c-8.042-0.013-14.4-3.65-18.388-10.52c-10.467-18.033-21.93-37.901-36.076-62.525c-3.987-6.942-3.996-14.271-0.026-21.196
		c14.07-24.545,25.58-44.498,36.223-62.794c3.916-6.733,10.156-10.301,18.048-10.318c12.263-0.028,24.528-0.045,36.792-0.045
		c11.875,0,23.747,0.016,35.621,0.047c7.875,0.021,14.111,3.599,18.034,10.343c12.106,20.815,24.349,42.028,36.388,63.05
		c3.834,6.696,3.861,13.741,0.078,20.374c-11.842,20.756-24.126,42.064-36.509,63.333c-3.882,6.667-10.079,10.208-17.921,10.241
		c-4.929,0.021-9.858,0.028-14.787,0.028C405.632,252.619,391.3,252.605,387.717,252.605z"/>
	<path fill="#FFFFFF" d="M388.307,87.203c11.875,0,23.747,0.016,35.621,0.047c7.129,0.02,12.725,3.184,16.311,9.349
		c12.197,20.972,24.324,41.985,36.381,63.038c3.449,6.023,3.51,12.369,0.076,18.389c-12.072,21.159-24.242,42.265-36.5,63.318
		c-3.547,6.091-9.099,9.217-16.201,9.247c-4.925,0.021-9.851,0.028-14.775,0.028c-7.168,0-14.334-0.014-21.502-0.014
		c-7.302,0-14.604,0.005-21.904,0.005c-4.69,0-9.38-0.002-14.07-0.009c-7.35-0.012-12.99-3.199-16.661-9.523
		c-12.077-20.809-24.087-41.656-36.071-62.518c-3.647-6.351-3.66-12.866-0.025-19.205c12.016-20.961,24.068-41.899,36.216-62.783
		c3.582-6.159,9.188-9.309,16.323-9.324C363.785,87.22,376.047,87.203,388.307,87.203 M388.307,83.203
		c-11.839,0-24.218,0.016-36.793,0.045c-8.641,0.019-15.478,3.931-19.771,11.313c-10.644,18.299-22.155,38.256-36.229,62.805
		c-4.343,7.575-4.334,15.593,0.027,23.187c14.148,24.627,25.613,44.498,36.08,62.533c4.365,7.52,11.32,11.502,20.115,11.516
		c4.692,0.007,9.384,0.009,14.076,0.009l10.953-0.002l10.951-0.003c3.582,0,7.165,0.003,10.747,0.007
		c3.585,0.004,7.17,0.007,10.755,0.007c4.931,0,9.862-0.007,14.793-0.028c8.59-0.037,15.382-3.921,19.641-11.234
		c12.386-21.274,24.672-42.588,36.518-63.349c4.095-7.179,4.066-15.119-0.08-22.358c-12.042-21.028-24.286-42.245-36.394-63.062
		c-4.301-7.394-11.133-11.314-19.758-11.338C412.401,83.219,400.413,83.203,388.307,83.203L388.307,83.203z"/>
</g>
<g>
	<path fill-rule="evenodd" clip-rule="evenodd" fill="#7C4DFF" d="M263.272,169.424c-3.602,0-7.202-0.006-10.803-0.011
		c-3.599-0.006-7.198-0.011-10.797-0.011l-21.649,0.005c-4.728,0-9.453-0.002-14.18-0.009c-8.187-0.011-14.406-3.585-18.485-10.623
		c-11.497-19.839-23.272-40.25-36-62.398c-3.995-6.952-4.013-14.282-0.052-21.197c13.748-23.99,25.259-43.945,36.224-62.8
		c3.92-6.741,10.157-10.315,18.039-10.335C217.733,2.016,229.901,2,242.065,2c11.976,0,23.947,0.015,35.923,0.047
		c7.896,0.021,14.162,3.639,18.123,10.461c11.574,19.926,23.405,40.42,36.171,62.652c3.953,6.887,3.956,14.166,0.009,21.052
		c-9.864,17.203-22.902,39.9-36.278,62.897c-3.874,6.663-10.009,10.215-17.742,10.27
		C273.271,169.413,268.271,169.424,263.272,169.424z"/>
	<path fill="#FFFFFF" d="M242.068,4c11.973,0,23.942,0.015,35.915,0.047c7.193,0.02,12.785,3.242,16.398,9.465
		c12.11,20.85,24.16,41.734,36.166,62.645c3.611,6.291,3.616,12.768,0.008,19.061c-12.037,20.993-24.105,41.969-36.271,62.887
		c-3.515,6.045-8.99,9.226-16.027,9.275c-4.994,0.034-9.989,0.045-14.983,0.045c-7.201,0-14.399-0.021-21.601-0.021
		c-7.224,0-14.448,0.005-21.671,0.005c-4.719,0-9.437-0.002-14.155-0.009c-7.41-0.01-13.057-3.24-16.758-9.626
		c-12.039-20.774-24.033-41.573-35.996-62.392c-3.648-6.35-3.684-12.865-0.051-19.207c12.014-20.963,24.07-41.901,36.217-62.788
		c3.58-6.157,9.179-9.323,16.315-9.341C217.738,4.016,229.904,4,242.068,4 M242.068,0c-11.875,0-24.156,0.015-36.504,0.045
		c-8.632,0.021-15.466,3.939-19.764,11.33c-10.966,18.856-22.478,38.814-36.229,62.81c-4.334,7.567-4.315,15.585,0.054,23.189
		c12.731,22.157,24.509,42.569,36.003,62.404c4.399,7.59,11.39,11.608,20.214,11.62c4.72,0.007,9.439,0.009,14.16,0.009
		l10.837-0.003l10.834-0.002c3.599,0,7.196,0.005,10.794,0.011c3.603,0.005,7.204,0.011,10.807,0.011
		c5.818,0,10.589-0.015,15.011-0.045c8.48-0.061,15.208-3.955,19.458-11.265c13.378-23.001,26.418-45.701,36.283-62.908
		c4.321-7.536,4.318-15.503-0.009-23.041c-12.767-22.236-24.6-42.732-36.176-62.662c-4.338-7.471-11.201-11.433-19.847-11.456
		C266.286,0.016,254.199,0,242.068,0L242.068,0z"/>
</g>
<g>
	<path fill-rule="evenodd" clip-rule="evenodd" fill="#7C4DFF" d="M95.415,252.605L73.7,252.611c-4.757,0-9.511-0.003-14.267-0.011
		c-8.038-0.014-14.396-3.656-18.385-10.532c-12.628-21.763-25.207-43.62-36.005-62.398c-4.094-7.119-4.095-14.342-0.002-21.467
		c12.14-21.132,24.033-41.815,36.07-62.538c3.95-6.799,10.227-10.401,18.151-10.419c12.274-0.027,24.555-0.043,36.83-0.043
		c11.815,0,23.626,0.015,35.44,0.051c7.919,0.023,14.178,3.63,18.1,10.429l10.079,17.483c8.497,14.744,17.283,29.991,25.968,44.959
		c4.166,7.183,4.177,14.48,0.029,21.69l-2.838,4.937c-10.814,18.808-21.997,38.257-33.076,57.342
		c-3.975,6.85-10.283,10.481-18.243,10.504c-4.765,0.013-9.53,0.018-14.294,0.018L95.415,252.605z"/>
	<path fill="#FFFFFF" d="M96.099,87.203c11.81,0,23.618,0.015,35.428,0.051c7.163,0.021,12.737,3.125,16.373,9.428
		c12.011,20.82,23.987,41.658,36.05,62.447c3.841,6.622,3.789,13.146,0.025,19.689c-11.944,20.771-23.881,41.548-35.91,62.271
		c-3.633,6.26-9.225,9.487-16.52,9.508c-4.761,0.013-9.523,0.018-14.284,0.018c-7.282,0-14.564-0.01-21.847-0.01
		c-7.239,0-14.479,0.006-21.719,0.006c-4.753,0-9.506-0.003-14.26-0.011c-7.35-0.013-12.986-3.208-16.657-9.536
		c-12.051-20.768-24.032-41.576-36.002-62.392c-3.713-6.457-3.708-13.021-0.002-19.474C18.76,138.336,30.754,117.476,42.84,96.67
		c3.61-6.215,9.225-9.408,16.426-9.424C71.542,87.219,83.822,87.203,96.099,87.203 M96.099,83.203
		c-11.454,0-23.505,0.014-36.842,0.043c-8.676,0.019-15.549,3.966-19.876,11.415c-12.037,20.721-23.933,41.409-36.075,62.546
		c-4.41,7.677-4.409,15.789,0.003,23.46c10.799,18.779,23.378,40.637,36.009,62.405c4.366,7.526,11.32,11.513,20.11,11.528
		c4.756,0.008,9.511,0.011,14.267,0.011l10.861-0.003l10.857-0.003c3.641,0,7.28,0.002,10.921,0.005
		c3.642,0.002,7.283,0.005,10.926,0.005c4.765,0,9.53-0.005,14.295-0.018c8.712-0.024,15.616-4.001,19.969-11.5
		c11.076-19.083,22.257-38.527,33.069-57.331l2.849-4.954c4.528-7.874,4.518-15.845-0.033-23.69
		c-8.687-14.971-17.474-30.22-25.972-44.966c-3.357-5.825-6.714-11.65-10.073-17.474c-4.298-7.45-11.153-11.402-19.826-11.429
		C120.209,83.22,108.617,83.203,96.099,83.203L96.099,83.203z"/>
</g>
<path fill-rule="evenodd" clip-rule="evenodd" fill="#7B4DFE" stroke="#FFFFFF" stroke-width="11" d="M77.601,186.2"/>
<g>
	<path fill-rule="evenodd" clip-rule="evenodd" fill="#F6F6F6" d="M372.424,184.284c0.077-0.004,0.15,0.006,0.224,0.031
		c2.35,1.931,4.666,3.904,7.057,5.785c5.83,4.589,11.688,9.14,17.543,13.697c2.017,1.569,4.053,3.114,6.079,4.67
		c-0.207-0.578-0.566-0.979-0.946-1.359c-5.192-5.196-10.381-10.396-15.583-15.582c-2.526-2.518-5.079-5.01-7.619-7.514
		c-3.488-3.514-6.966-7.037-10.464-10.54c-6.781-6.793-13.506-13.645-20.394-20.33c-3.051-2.962-3.998-6.396-3.417-10.426
		c1.776-12.334,11.618-20.85,24.086-20.852c14.808-0.003,29.613-0.006,44.421,0.002c8.469,0.002,15.25,5.461,17.004,13.702
		c0.19,0.891,0.262,1.822,0.268,2.734c0.027,4.748,0.006,9.497,0.026,14.246c0.006,1.256-0.387,2.118-1.796,2.115
		c-8.015-0.012-16.03-0.035-24.045-0.055c-0.126-0.159-0.226-0.353-0.382-0.47c-9.329-6.974-18.662-13.944-27.997-20.911
		c-1.66-1.238-3.333-2.461-4.999-3.689c0.015,0.389,0.179,0.579,0.357,0.757c7.977,7.979,15.952,15.958,23.935,23.93
		c0.248,0.249,0.552,0.44,0.83,0.658c0.816,0.842,1.62,1.696,2.451,2.524c9.728,9.696,19.44,19.406,29.197,29.07
		c2.793,2.767,2.768,6.16,2.209,9.578c-2.041,12.482-12.146,20.983-24.821,20.996c-14.604,0.013-29.206-0.071-43.809,0.027
		c-10.543,0.071-17.467-8.443-17.086-17.092c0.2-4.535,0.044-9.086,0.028-13.631c-0.003-0.993,0.126-1.852,1.288-2.104
		C354.854,184.266,363.639,184.275,372.424,184.284z"/>
	<path fill-rule="evenodd" clip-rule="evenodd" fill="#C0C0C0" d="M396.612,154.885c-0.278-0.218-0.582-0.409-0.83-0.658
		c-7.982-7.972-15.958-15.95-23.935-23.93c-0.179-0.178-0.343-0.368-0.357-0.757c1.666,1.229,3.339,2.451,4.999,3.689
		c9.335,6.967,18.668,13.938,27.997,20.911c0.156,0.117,0.256,0.311,0.382,0.47c-2.271,0.014-4.54,0.014-6.81,0.052
		C397.575,154.669,397.093,154.808,396.612,154.885z"/>
	<path fill-rule="evenodd" clip-rule="evenodd" fill="#C0C0C1" d="M379.178,184.013c2.54,2.504,5.093,4.996,7.619,7.514
		c5.202,5.187,10.391,10.386,15.583,15.582c0.38,0.381,0.739,0.781,0.946,1.359c-2.026-1.556-4.063-3.101-6.079-4.67
		c-5.854-4.558-11.713-9.108-17.543-13.697c-2.391-1.881-4.707-3.854-7.057-5.785c1.696-0.021,3.394-0.027,5.091-0.075
		C378.22,184.227,378.698,184.092,379.178,184.013z"/>
</g>
<g>
	
		<circle fill-rule="evenodd" clip-rule="evenodd" fill="none" stroke="#FFFFFF" stroke-width="4" cx="55.097" cy="169.799" r="20.189"/>
	
		<circle fill-rule="evenodd" clip-rule="evenodd" fill="none" stroke="#FFFFFF" stroke-width="4" cx="118.097" cy="203.193" r="20.189"/>
	
		<circle fill-rule="evenodd" clip-rule="evenodd" fill="none" stroke="#FFFFFF" stroke-width="4" cx="113.277" cy="136.938" r="15.075"/>
	<line fill="none" stroke="#FFFFFF" stroke-width="4" x1="71.39" y1="183.004" x2="99.593" y2="196.985"/>
	<line fill="none" stroke="#FFFFFF" stroke-width="4" x1="113.278" y1="153.012" x2="115.908" y2="184.124"/>
	<line fill="none" stroke="#FFFFFF" stroke-width="4" x1="70.361" y1="157.593" x2="98.203" y2="143.376"/>
</g>
<path fill="none" stroke="#FFFFFF" stroke-width="5" stroke-miterlimit="10" d="M241.797,80.402
	c13.572,0,24.572-11.002,24.572-24.572c0-13.569-11-24.571-24.572-24.571s-24.571,11.002-24.571,24.571
	C217.226,69.4,228.225,80.402,241.797,80.402z M251.53,89.616h-19.465c-18.369,0-33.268,14.896-33.268,33.268
	c0,3.675,2.979,6.656,6.654,6.656h72.697c3.674,0.005,6.648-2.97,6.648-6.656C284.797,104.513,269.901,89.616,251.53,89.616z"/>
</svg>
